<svg xmlns="http://www.w3.org/2000/svg" fill-rule="evenodd" fill="#000" viewBox="0 0 16 16">
  <path d="m14.207 9.363-2.491.92v2.912L6.768 15V9.157l4.919-1.829v-4.72l2.52.921zm-4.844 1.573c-.43.157-.778.654-.778 1.112 0 .457.349.7.778.544.43-.156.778-.654.778-1.111 0-.457-.348-.701-.778-.545m1.58-4.125L6.01 8.639l.008 3.712-1.756.63-2.47-.9V6.248l2.481-.921V2.415L8.163 1l2.78.888ZM7.678 3.593c-.43.157-.778.654-.778 1.112 0 .457.348.7.778.544.43-.156.778-.654.778-1.111 0-.457-.348-.701-.778-.545"/>
</svg>
