<svg xmlns="http://www.w3.org/2000/svg" fill-rule="evenodd" fill="#000" viewBox="0 0 16 16">
  <rect width="14" height="14" x="1" y="1" ry="1.2" />
  <path fill="#fcfcfc" d="M 8.1890027,3 C 8.2518027,3.6477611 8.289588,4.3027014 8.3023599,4.9648588 9.0201,4.9144904 9.7380292,4.8640844 10.456148,4.8137157 10.397356,5.2147359 10.321782,5.6114863 10.229432,6.0039668 9.5872642,5.994516 8.9449066,5.9756277 8.3023599,5.9472877 c -0.0063,1.6500279 0,3.3000184 0.018892,4.9499323 0.081466,0.472775 0.3648592,0.69949 0.8501793,0.680144 0.5279051,-0.07089 1.0065378,-0.259815 1.4358588,-0.566787 0.125941,0.201514 0.251919,0.40306 0.377858,0.604573 -0.652219,0.609974 -1.407935,1.057093 -2.2671453,1.341393 C 7.8314739,13.10527 7.0694487,12.872243 6.4319655,12.257508 6.2658971,11.962816 6.1525399,11.647948 6.0918937,11.312864 6.073001,9.5117686 6.0666907,7.7106733 6.073001,5.9095023 c -0.3148687,0 -0.6297752,0 -0.9446437,0 C 5.0859617,5.6900806 5.048176,5.4696763 5.015,5.2482518 5.3457009,5.0729259 5.6983553,4.9532585 6.073001,4.8892874 6.0610229,4.5648967 6.0736433,4.2437178 6.1107867,3.9257508 6.809105,3.6397884 7.501831,3.3311921 8.1890027,3 Z" />
</svg>
