<svg xmlns="http://www.w3.org/2000/svg" fill-rule="evenodd" fill="#000" viewBox="0 0 16 16">
  <path d="M7.8 12.854v.548H6.358l-.48-1.661a4.35 4.35 0 0 1-.984-.385l-1.624.948-.967-.966.877-1.641a4.292 4.292 0 0 1-.398-.95L1 8.263v-1.37l1.773-.52a4.28 4.28 0 0 1 .39-.956l-.9-1.613.965-.967 1.626.914a4.368 4.368 0 0 1 .949-.387l.501-1.829h1.37l.516 1.867c.3.093.591.217.866.37l1.706-.975.967.967-.97 1.723c.13.239.238.492.321.759-.455.007-1.15.063-1.684.306-.573-1.412-2.326-2.13-3.774-1.295-1.756 1.012-1.756 3.558 0 4.57.374.216.77.328 1.16.351-.067 1.657.16 2.17 1.018 2.676m2.384-2.396a1.14 1.14 0 0 0-1.122 1.115v.82h-.616c-.521 0-.826-.378-.954-.91-.172-.714-.164-1.14 0-1.824.144-.597.6-.91 1.121-.91h2.469V8.44H9.288v-.706c0-.518.137-.696.897-.83a5.522 5.522 0 0 1 1.793 0c.486.081.897.446.897.933v1.71a.904.904 0 0 1-.897.911zm.477-2.786a.411.411 0 0 0-.616-.361.42.42 0 0 0 0 .721.411.411 0 0 0 .616-.36m4.213 3.965c-.143.596-.6.91-1.122.91h-2.467v.28h1.794v.735c0 .518-.138.695-.897.83a5.522 5.522 0 0 1-1.793 0c-.488-.081-.898-.446-.898-.934V11.75c0-.502.4-.912.898-.912h1.793a1.14 1.14 0 0 0 1.12-1.115v-.822h.618c.522 0 .826.38.954.91.172.714.165 1.141 0 1.825m-3.17 1.987a.411.411 0 0 0 .617.361.42.42 0 0 0 0-.722.411.411 0 0 0-.616.361"/>
</svg>
