<svg xmlns="http://www.w3.org/2000/svg" fill="#000" fill-rule="evenodd" viewBox="0 0 16 16">
  <path d="m9.002 2.07-.234-.033v.552a5.44 5.44 0 0 1 1.446 3.37H5.09s-.519.026-.519.457c0 .448.412.522.516.522H7.66s.322-.018.322.226c0 .234-.237.223-.319.223H2.417A6.425 6.425 0 0 1 7.723 2 5.99 5.99 0 0 0 2.09 7.387H.567S0 7.32 0 7.813s.426.475.545.475h1.524a5.95 5.95 0 0 0 .915 2.87l.004-.004a6.3 6.3 0 0 1-.615-2.166h2.791c.134 0 .508-.018.508-.452 0-.43-.46-.441-.46-.441H1.439s-.33.026-.33-.237.216-.275.312-.275h7.063s.54.06.54-.44c0-.446-.474-.427-.648-.427H5.962s-.36.015-.36-.256c0-.27.304-.256.356-.256h4.252v.082a5.4 5.4 0 0 1-1.457 3.7 5.45 5.45 0 0 1-3.095 1.672q.35.216.734.378a6 6 0 0 0 2.358-1.305 6 6 0 0 0 1.338-1.743h2.636V8.74h-2.517a6 6 0 0 0 .526-2.454v-.082h2.443a5.4 5.4 0 0 1 .293 1.758c0 1.02-.282 1.976-.775 2.795l.415.337c.564-.912.89-1.983.89-3.132.015-2.963-2.157-5.432-4.997-5.892m-4.35 6.492c0 .241-.233.256-.233.256H2.365a7 7 0 0 1-.018-.478v-.052H4.44c.038.004.212.033.212.274m6.092-2.602a5.9 5.9 0 0 0-1.16-3.215 5.48 5.48 0 0 1 3.522 3.215Z"/>
</svg>
