<svg xmlns="http://www.w3.org/2000/svg" fill-rule="evenodd" fill="#000" viewBox="0 0 16 16">
  <path d="M7.943 1.05c-3.55 0-3.326 1.535-3.326 1.535V4.18h3.376v.5h-4.72S1 4.4 1 8.003c0 3.602 2.007 3.455 2.007 3.455h1.158v-1.68S4.1 7.772 6.115 7.772h3.381s1.886.03 1.886-1.826V2.9s.286-1.856-3.421-1.856zM6.076 2.119a.607.607 0 1 1-.592.621v-.01a.607.607 0 0 1 .607-.606zM8.043 14.955c3.55 0 3.325-1.54 3.325-1.54v-1.59H7.992v-.5h4.736S15 11.579 15 7.998c0-3.582-2.006-3.457-2.006-3.457H11.82V6.2s.065 2.007-1.95 2.007H6.488S4.6 8.178 4.6 10.034V13.1s-.286 1.856 3.421 1.856h.02zm1.866-1.073a.607.607 0 1 1 .591-.623v.015a.607.607 0 0 1-.607.608z"/>
</svg>
