<svg xmlns="http://www.w3.org/2000/svg" fill-rule="evenodd" fill="#000" viewBox="0 0 16 16">
  <path d="M 0 0 L 0 16 L 16 16 L 16 0 L 0 0 z M 8.2265625 2 C 8.3019225 2.7773133 8.347955 3.562833 8.3632812 4.3574219 C 9.2245693 4.2969799 10.085524 4.2362237 10.947266 4.1757812 C 10.876716 4.6570054 10.7866 5.1344921 10.675781 5.6054688 C 9.9051792 5.5941278 9.1343373 5.5711174 8.3632812 5.5371094 C 8.3557113 7.5171429 8.3620946 9.4966657 8.3847656 11.476562 C 8.4825246 12.043893 8.8238659 12.316185 9.40625 12.292969 C 10.039736 12.207909 10.61372 11.981647 11.128906 11.613281 C 11.280035 11.855097 11.430904 12.096077 11.582031 12.337891 C 10.799368 13.069861 9.8923805 13.606107 8.8613281 13.947266 C 7.7974932 14.125738 6.8841204 13.847058 6.1191406 13.109375 C 5.9198585 12.755745 5.7837129 12.376709 5.7109375 11.974609 C 5.6882661 9.8132946 5.6799277 7.6535926 5.6875 5.4921875 L 4.5546875 5.4921875 C 4.5038127 5.2288814 4.4577799 4.962975 4.4179688 4.6972656 C 4.8148098 4.4868746 5.2379252 4.3443435 5.6875 4.2675781 C 5.6731263 3.8783093 5.6878498 3.4928886 5.7324219 3.1113281 C 6.5704039 2.7681732 7.4019565 2.3974305 8.2265625 2 z " />
</svg>
